<svg width="52" height="52" viewBox="0 0 52 52" fill="none" xmlns="http://www.w3.org/2000/svg">
  <mask id="mask0_6_26" style="mask-type:luminance" maskUnits="userSpaceOnUse" x="0" y="0" width="52" height="52">
  <path d="M0 0H52V52H0V0Z" fill="white"/>
  </mask>
  <g mask="url(#mask0_6_26)">
  <path fill-rule="evenodd" clip-rule="evenodd" d="M45.5195 23.1855L17.875 7.20524C17.3809 6.91999 16.8205 6.76982 16.25 6.76982C15.6795 6.76982 15.1191 6.91998 14.625 7.20522C14.131 7.49045 13.7207 7.90072 13.4354 8.39477C13.1502 8.88882 13 9.44925 13 10.0197V41.9802C13 42.5507 13.1502 43.1112 13.4354 43.6052C13.7207 44.0993 14.131 44.5095 14.625 44.7948C15.1191 45.08 15.6795 45.2302 16.25 45.2302C16.8205 45.2302 17.3809 45.08 17.875 44.7947L45.5195 28.8145C46.0135 28.5292 46.4238 28.119 46.709 27.6249C46.9942 27.1309 47.1444 26.5705 47.1444 26C47.1444 25.4295 46.9942 24.8691 46.709 24.3751C46.4238 23.881 46.0135 23.4707 45.5195 23.1855ZM47.957 33.033C53.3682 29.9065 53.3682 22.0935 47.957 18.9637L20.3157 2.98349C14.9012 -0.146262 8.125 3.76349 8.125 10.0197V41.9802C8.125 48.2365 14.9012 52.1462 20.3157 49.0132L47.957 33.033Z" fill="black"/>
  </g>
  </svg>
  